<?xml version="1.0" encoding="utf-8"?>
<!-- Generator: Adobe Illustrator 26.0.3, SVG Export Plug-In . SVG Version: 6.00 Build 0)  -->
<svg version="1.0" id="katman_1" xmlns="http://www.w3.org/2000/svg" xmlns:xlink="http://www.w3.org/1999/xlink" x="0px" y="0px"
	 viewBox="0 0 600 450" style="enable-background:new 0 0 600 450;" xml:space="preserve">
<style type="text/css">
	.st0{fill:#E83B68;}
	.st1{fill:#FFFFFF;}
</style>
<path class="st0" d="M265.7,204h17.4l-24.8,62.4h-15.6L217.5,204h17.9l15.1,41.7L265.7,204z M288.7,266h17V204h-17V266z
	 M313.4,245.8h17c0.5,4.1,3.2,8.3,10.6,8.3c6.4,0,9.6-2.3,9.6-5.5c0-10.6-34.4-0.5-34.4-25.2c0-11.5,9.6-20.6,24.8-20.6
	c18.8,0,25.2,11.9,25.7,21.1h-16.1c-0.5-4.1-3.2-7.3-9.2-7.3c-5.5,0-8.7,2.8-8.7,6c0,10.6,34.4,0,34.4,25.7c0,11-9.6,19.7-26.1,19.7
	C321.2,267.3,314.3,257.7,313.4,245.8 M375.4,266h17V204h-17V266z M432.2,252.7c8.7,0,15.6-6.4,15.6-17.9c0-11-6.9-17.9-15.6-17.9
	s-15.6,6.4-15.6,17.9C416.6,246.2,423.5,252.7,432.2,252.7 M399.7,234.8c0-17.9,12.8-32.6,32.6-32.6s32.6,14.7,32.6,32.6
	s-12.8,32.6-32.6,32.6S399.7,252.7,399.7,234.8 M488.2,211.4c2.8-5.5,9.2-9.2,18.4-9.2c15.1,0,22.9,10.1,22.9,24.8v39h-17v-37.2
	c0-7.3-3.2-12.4-10.6-12.4c-8.3,0-12.8,5-12.8,13.8V266h-17V204h16.1V211.4z"/>
<path class="st0" d="M70.7,303.6h156.4V147.2H70.7V303.6z"/>
<path class="st1" d="M125.8,196.2c5,0,9.2-3.7,9.2-9.2c0-5-4.1-9.2-9.2-9.2s-9.2,3.7-9.2,9.2S120.7,196.2,125.8,196.2 M106.5,244.9
	c-0.5,2.3-0.9,4.6-0.9,6.9c0,7.8,4.1,13.3,13.3,13.3c7.8,0,13.8-4.6,18.4-11.9l-2.8,11h15.1l8.7-34.4c2.3-8.7,6.4-13.3,12.8-13.3
	c5,0,8.3,3.2,8.3,8.3c0,1.4,0,3.2-0.5,5l-4.6,16.1c-0.5,2.3-0.9,4.6-0.9,6.9c0,7.3,4.6,12.8,13.8,12.8c7.8,0,14.2-5,17.9-17.4
	l-6-2.3c-2.8,8.3-5.5,9.6-7.3,9.6s-3.2-1.4-3.2-4.1c0-1.4,0.5-2.8,0.5-4.1l4.1-15.6c0.9-3.7,1.4-6.9,1.4-9.6
	c0-11.5-6.9-17.4-15.6-17.4c-7.8,0-16.1,7.3-20.2,14.7l2.8-13.3h-22.9l-3.2,11.9H146l-6.4,25.2c-5,11.5-14.7,11.9-16.1,11.5
	c-1.8-0.5-3.2-1.4-3.2-3.7c0-1.4,0.5-3.7,0.9-6l10.1-39.9h-25.2l-3.2,11.9h10.6L106.5,244.9z"/>
</svg>
